<?xml version="1.0" standalone="no"?>
<!DOCTYPE svg PUBLIC "-//W3C//DTD SVG 20010904//EN"
 "http://www.w3.org/TR/2001/REC-SVG-20010904/DTD/svg10.dtd">
<svg version="1.0" xmlns="http://www.w3.org/2000/svg"
 width="512.000000pt" height="512.000000pt" viewBox="0 0 512.000000 512.000000"
 preserveAspectRatio="xMidYMid meet">

<g transform="translate(0.000000,512.000000) scale(0.100000,-0.100000)"
fill="#000000" stroke="none">
<path d="M320 4627 c-49 -16 -133 -102 -148 -153 -18 -60 -18 -3768 0 -3828
16 -55 99 -138 154 -154 30 -9 163 -12 473 -12 l432 0 24 25 c33 32 33 78 0
110 l-24 25 -431 0 -431 0 -24 25 -25 24 0 1576 0 1575 2240 0 2240 0 0 -1575
0 -1576 -25 -24 -24 -25 -431 0 -431 0 -24 -25 c-33 -32 -33 -78 0 -110 l24
-25 432 0 c310 0 443 3 473 12 55 16 138 99 154 154 17 59 18 3768 0 3826 -6
22 -31 62 -55 88 -79 88 145 80 -2337 79 -1574 -1 -2211 -4 -2236 -12z m4455
-172 c25 -24 25 -24 25 -240 l0 -215 -2240 0 -2240 0 0 215 c0 216 0 216 25
240 l24 25 2191 0 2191 0 24 -25z"/>
<path d="M505 4295 c-50 -49 -15 -135 55 -135 41 0 80 39 80 80 0 41 -39 80
-80 80 -19 0 -40 -9 -55 -25z"/>
<path d="M825 4295 c-50 -49 -15 -135 55 -135 41 0 80 39 80 80 0 41 -39 80
-80 80 -19 0 -40 -9 -55 -25z"/>
<path d="M1145 4295 c-50 -49 -15 -135 55 -135 41 0 80 39 80 80 0 41 -39 80
-80 80 -19 0 -40 -9 -55 -25z"/>
<path d="M4060 3343 c-8 -3 -807 -361 -1775 -795 -1040 -466 -1767 -797 -1777
-809 -26 -31 -22 -67 9 -97 27 -26 51 -31 446 -96 229 -38 417 -71 417 -74 0
-6 248 -1063 261 -1114 16 -63 62 -91 114 -72 13 5 118 132 442 532 48 59 55
96 23 130 -27 29 -62 37 -93 20 -14 -7 -64 -62 -113 -122 -48 -60 -89 -105
-91 -100 -4 16 155 539 164 538 4 -1 286 -90 625 -198 340 -108 631 -196 647
-196 17 0 38 9 51 23 27 28 749 2300 750 2358 0 22 -7 42 -17 52 -21 18 -62
28 -83 20z m-450 -1314 c-166 -525 -303 -956 -305 -958 -4 -4 -1105 345 -1113
353 -3 4 2 12 10 19 9 6 103 92 210 189 832 763 1493 1363 1496 1357 2 -4
-133 -436 -298 -960z m-307 634 c-192 -175 -573 -523 -848 -774 l-501 -456
-109 -372 c-60 -204 -112 -368 -115 -364 -8 9 -190 779 -190 803 0 8 33 36 73
61 289 185 694 453 705 467 19 25 15 79 -8 102 -44 44 -60 37 -485 -240 -275
-179 -406 -259 -420 -256 -11 2 -138 24 -282 47 -145 24 -263 46 -263 49 0 5
2769 1248 2783 1249 4 1 -149 -142 -340 -316z"/>
</g>
</svg>
