<?xml version="1.0" standalone="no"?>
<!DOCTYPE svg PUBLIC "-//W3C//DTD SVG 20010904//EN"
 "http://www.w3.org/TR/2001/REC-SVG-20010904/DTD/svg10.dtd">
<svg version="1.0" xmlns="http://www.w3.org/2000/svg"
 width="512.000000pt" height="512.000000pt" viewBox="0 0 512.000000 512.000000"
 preserveAspectRatio="xMidYMid meet">

<g transform="translate(0.000000,512.000000) scale(0.100000,-0.100000)"
fill="#000000" stroke="none">
<path d="M2370 5114 c-19 -2 -77 -9 -128 -15 -126 -14 -306 -52 -427 -90 -390
-121 -738 -327 -1029 -609 -226 -218 -385 -437 -521 -715 -168 -340 -248 -661
-262 -1040 -15 -426 73 -832 263 -1214 125 -252 264 -448 461 -652 210 -216
428 -375 698 -509 196 -97 315 -141 510 -190 500 -126 1002 -102 1490 71 149
53 407 182 540 271 365 243 667 578 866 963 376 724 384 1578 23 2304 -124
250 -263 447 -458 648 -213 221 -418 371 -701 514 -248 124 -501 204 -779 245
-96 14 -472 27 -546 18z m452 -269 c395 -46 753 -184 1078 -415 52 -37 120
-90 152 -118 l56 -49 -61 -7 c-185 -19 -335 -185 -345 -381 -7 -140 36 -259
185 -504 176 -291 231 -474 220 -734 -6 -151 -29 -252 -126 -567 -33 -107
-105 -348 -161 -535 -56 -187 -105 -343 -109 -348 -4 -4 -193 545 -419 1219
-227 675 -411 1228 -410 1230 2 1 64 7 138 14 74 7 147 18 162 26 38 20 53 72
34 117 -24 59 -35 61 -250 46 -245 -17 -647 -17 -892 0 -201 14 -221 11 -251
-28 -15 -19 -17 -85 -3 -110 14 -28 33 -33 180 -50 l135 -16 178 -489 178
-488 -247 -742 c-135 -407 -250 -745 -254 -749 -4 -4 -192 542 -418 1215 -226
673 -413 1230 -417 1239 -5 14 12 18 132 28 76 7 149 19 164 26 57 30 61 117
7 158 -25 19 -33 19 -200 8 -232 -15 -618 -26 -618 -17 0 12 76 114 162 219
219 265 541 503 860 635 207 86 449 150 649 171 136 14 374 12 511 -4z m1832
-1331 c305 -682 271 -1440 -93 -2087 -144 -257 -380 -526 -616 -703 -116 -86
-213 -149 -220 -142 -2 1 163 482 367 1068 478 1376 450 1291 483 1514 16 111
22 408 9 463 -13 55 16 8 70 -113z m-3645 -1527 c299 -819 541 -1490 539
-1493 -7 -6 -251 139 -331 197 -739 541 -1090 1436 -912 2326 36 176 138 485
155 466 4 -4 251 -678 549 -1496z m1953 -617 c192 -525 350 -961 351 -969 4
-31 -270 -100 -499 -127 -165 -19 -441 -14 -602 11 -91 14 -290 59 -298 68 -3
2 649 1904 676 1972 9 21 14 25 18 15 3 -8 162 -445 354 -970z"/>
</g>
</svg>
