<?xml version="1.0" standalone="no"?>
<!DOCTYPE svg PUBLIC "-//W3C//DTD SVG 20010904//EN"
 "http://www.w3.org/TR/2001/REC-SVG-20010904/DTD/svg10.dtd">
<svg version="1.0" xmlns="http://www.w3.org/2000/svg"
 width="512.000000pt" height="512.000000pt" viewBox="0 0 512.000000 512.000000"
 preserveAspectRatio="xMidYMid meet">

<g transform="translate(0.000000,512.000000) scale(0.100000,-0.100000)"
fill="#000000" stroke="none">
<path d="M989 4739 c-20 -12 -43 -33 -52 -48 -25 -43 -727 -2008 -727 -2036 0
-35 23 -86 48 -108 15 -14 241 -107 260 -107 1 0 2 37 2 83 0 46 7 106 15 133
19 63 72 126 133 156 l47 23 592 5 592 5 -187 67 c-829 295 -947 339 -974 365
-38 36 -54 91 -41 140 19 71 362 1015 377 1039 22 33 74 57 121 56 40 -1 1726
-598 1773 -628 35 -23 62 -74 62 -119 0 -27 -54 -190 -159 -483 l-159 -443
115 3 115 3 22 58 c23 63 44 82 76 72 33 -11 41 -38 25 -85 -8 -24 -15 -44
-15 -46 0 -2 246 -4 546 -4 l547 0 -34 23 c-23 15 -37 35 -43 59 -8 32 0 61
67 250 84 233 99 258 164 258 32 0 370 -114 435 -147 28 -13 58 -59 58 -87 0
-9 -27 -91 -60 -183 -33 -92 -58 -168 -57 -169 1 -1 20 -5 43 -8 l41 -7 78
220 c82 233 87 262 50 317 -30 46 24 24 -760 306 -214 77 -458 164 -541 193
l-150 53 -39 -110 c-40 -114 -54 -138 -85 -138 -22 0 -50 25 -50 45 0 7 18 63
40 124 21 61 35 113 31 115 -7 5 -951 344 -1336 481 -82 29 -320 114 -528 189
-209 75 -393 136 -410 136 -18 0 -48 -10 -68 -21z m2272 -1265 c4 -13 -10 -68
-43 -159 -51 -142 -69 -175 -96 -175 -18 0 -52 29 -52 44 0 6 23 78 52 160 39
111 58 150 73 156 27 10 57 -2 66 -26z"/>
<path d="M1175 4410 c-17 -6 -57 -110 -203 -516 -100 -280 -182 -515 -182
-521 0 -7 10 -19 23 -27 12 -8 331 -125 708 -260 l686 -246 200 0 199 0 162
453 c90 248 162 462 162 473 0 12 -6 26 -12 31 -7 5 -344 128 -748 273 -1016
364 -972 349 -995 340z m570 -521 c30 -33 48 -88 137 -405 l8 -32 178 59 c268
88 275 84 353 -213 l52 -196 -21 -44 c-25 -50 -65 -78 -115 -78 -47 0 -1175
405 -1204 432 -49 46 -54 129 -10 179 12 15 127 98 256 184 l234 157 50 -5
c42 -4 56 -11 82 -38z m382 4 c73 -34 109 -129 79 -208 -52 -136 -234 -150
-305 -24 -82 145 74 304 226 232z"/>
<path d="M1418 3682 c-206 -140 -243 -171 -220 -194 11 -11 1115 -408 1136
-408 37 0 36 25 -9 196 -26 97 -52 174 -61 181 -25 18 -338 -91 -353 -124 -14
-32 -65 -32 -84 0 -8 12 -43 123 -77 247 -35 124 -68 231 -73 238 -5 6 -17 12
-26 11 -9 0 -114 -66 -233 -147z"/>
<path d="M1996 3791 c-42 -46 8 -130 68 -115 54 13 70 78 30 118 -22 22 -77
20 -98 -3z"/>
<path d="M4231 3147 c-35 -100 -66 -187 -68 -192 -2 -6 63 -34 145 -63 122
-44 157 -53 201 -50 l54 3 64 174 c34 96 62 176 60 177 -5 6 -371 134 -381
134 -6 0 -40 -82 -75 -183z"/>
<path d="M727 2726 c-51 -19 -73 -40 -92 -90 -14 -36 -15 -161 -13 -1108 3
-1059 3 -1067 24 -1094 11 -15 33 -37 48 -48 27 -21 33 -21 1237 -24 l1209 -2
0 105 c0 100 1 105 25 121 23 15 27 15 50 0 24 -16 25 -20 25 -121 l0 -105
758 2 757 3 31 22 c68 49 64 -23 64 1166 l0 1074 -22 33 c-13 18 -36 43 -51
54 -28 21 -35 21 -783 24 l-754 2 0 -128 c0 -138 -5 -152 -50 -152 -45 0 -50
14 -50 152 l0 128 -1187 0 c-976 -1 -1195 -3 -1226 -14z m3990 -166 c48 -29
55 -69 51 -314 -4 -296 13 -280 -298 -284 -200 -2 -229 -1 -260 15 -58 30 -61
42 -58 304 3 221 4 238 23 259 11 12 29 26 40 31 11 4 121 8 245 8 206 1 228
-1 257 -19z m-1877 -28 c19 -9 45 -32 57 -51 l23 -34 0 -574 0 -574 -39 -42
-40 -42 -954 -3 -954 -2 -34 23 c-71 47 -69 28 -69 647 l0 555 23 39 c12 21
38 47 57 57 33 18 78 19 965 19 865 0 932 -1 965 -18z m378 -268 c21 -15 22
-21 22 -178 0 -174 -3 -186 -50 -186 -47 0 -50 12 -50 186 0 157 1 163 22 178
12 9 25 16 28 16 3 0 16 -7 28 -16z m0 -560 c21 -15 22 -21 22 -178 0 -174 -3
-186 -50 -186 -47 0 -50 12 -50 186 0 157 1 163 22 178 12 9 25 16 28 16 3 0
16 -7 28 -16z m1490 -76 c7 -7 12 -24 12 -38 0 -14 -5 -31 -12 -38 -9 -9 -164
-12 -634 -12 -553 0 -624 2 -638 16 -9 8 -16 24 -16 34 0 10 7 26 16 34 14 14
85 16 638 16 470 0 625 -3 634 -12z m0 -400 c19 -19 15 -66 -7 -78 -13 -6
-230 -10 -635 -10 -545 0 -616 2 -630 16 -19 18 -21 55 -4 72 17 17 1259 17
1276 0z m-1490 -84 c21 -15 22 -21 22 -178 0 -174 -3 -186 -50 -186 -47 0 -50
12 -50 186 0 157 1 163 22 178 12 9 25 16 28 16 3 0 16 -7 28 -16z m-304 -160
c20 -20 20 -48 0 -68 -14 -14 -121 -16 -1028 -16 -774 0 -1015 3 -1024 12 -15
15 -15 61 0 76 9 9 250 12 1024 12 907 0 1014 -2 1028 -16z m1794 -156 c19
-19 15 -66 -7 -78 -13 -6 -230 -10 -635 -10 -545 0 -616 2 -630 16 -19 18 -21
55 -4 72 17 17 1259 17 1276 0z m-1794 -174 c21 -20 20 -43 -1 -66 -15 -17
-60 -18 -1020 -18 -673 0 -1011 3 -1024 10 -22 12 -26 59 -7 78 9 9 250 12
1024 12 907 0 1014 -2 1028 -16z"/>
<path d="M4250 2270 l0 -210 208 2 207 3 0 205 0 205 -207 3 -208 2 0 -210z"/>
<path d="M946 2434 c-14 -14 -16 -77 -16 -550 0 -350 4 -542 10 -555 10 -19
31 -19 933 -19 705 0 926 3 935 12 17 17 17 1099 0 1116 -9 9 -229 12 -929 12
-821 0 -919 -2 -933 -16z m1142 -191 c48 -35 72 -81 72 -136 0 -122 -113 -205
-224 -163 -137 52 -153 226 -29 303 48 30 138 28 181 -4z m-419 -108 c17 -8
77 -83 150 -185 67 -93 124 -170 127 -170 3 0 68 50 145 111 217 172 232 169
399 -71 89 -129 114 -171 117 -204 5 -52 -21 -103 -68 -128 -32 -17 -72 -18
-652 -18 -682 0 -658 -2 -697 63 -31 50 -26 106 14 165 79 118 302 415 324
433 30 23 101 25 141 4z"/>
<path d="M1941 2144 c-25 -32 -26 -52 -6 -81 19 -27 59 -37 88 -22 30 16 37
28 37 65 0 63 -79 88 -119 38z"/>
<path d="M1429 1840 c-109 -149 -154 -219 -154 -238 l0 -27 604 -3 c607 -2
631 -1 631 32 0 6 -45 77 -100 156 -71 103 -107 145 -120 145 -31 0 -289 -206
-290 -230 -1 -50 -56 -60 -92 -17 -12 15 -81 110 -153 210 -99 138 -135 182
-151 182 -16 0 -58 -50 -175 -210z"/>
<path d="M307 2192 c-14 -16 -17 -43 -17 -165 0 -134 2 -147 19 -157 28 -14
38 -13 61 10 18 18 20 33 20 155 0 122 -2 137 -20 155 -25 25 -42 25 -63 2z"/>
<path d="M317 1722 c-10 -2 -22 -15 -28 -28 -5 -15 -9 -213 -9 -464 0 -385 2
-440 16 -454 8 -9 24 -16 34 -16 10 0 26 7 34 16 14 14 16 70 16 467 0 249 -4
457 -8 463 -10 14 -33 21 -55 16z"/>
</g>
</svg>
