<?xml version="1.0" standalone="no"?>
<!DOCTYPE svg PUBLIC "-//W3C//DTD SVG 20010904//EN"
 "http://www.w3.org/TR/2001/REC-SVG-20010904/DTD/svg10.dtd">
<svg version="1.0" xmlns="http://www.w3.org/2000/svg"
 width="512.000000pt" height="512.000000pt" viewBox="0 0 512.000000 512.000000"
 preserveAspectRatio="xMidYMid meet">

<g transform="translate(0.000000,512.000000) scale(0.100000,-0.100000)"
fill="#000000" stroke="none">
<path d="M82 4893 c-18 -9 -43 -30 -55 -47 l-22 -31 -3 -1352 -2 -1353 634 0
633 0 41 103 c57 145 79 221 102 360 56 327 193 536 433 659 104 53 183 72
315 73 l113 2 467 465 c495 493 504 500 625 528 94 22 219 5 309 -41 59 -30
150 -120 183 -180 72 -133 73 -293 3 -434 -13 -25 -197 -217 -487 -508 l-466
-468 3 -87 c6 -146 -37 -305 -113 -420 l-35 -52 1180 0 1180 0 -2 1353 -3
1352 -22 31 c-50 70 173 64 -2535 64 -2230 0 -2446 -2 -2476 -17z"/>
<path d="M3379 3981 c-24 -16 -214 -200 -422 -408 l-379 -380 108 -107 107
-108 394 394 c216 216 400 407 408 425 35 73 6 160 -65 195 -52 26 -99 23
-151 -11z"/>
<path d="M2060 2996 c-71 -19 -118 -45 -176 -98 -101 -93 -148 -196 -183 -404
-11 -66 -39 -180 -63 -252 l-43 -132 310 0 c346 0 388 6 483 63 248 149 295
475 99 693 -101 112 -287 169 -427 130z"/>
<path d="M2 1508 c3 -295 4 -304 25 -334 50 -70 -173 -64 2533 -64 2706 0
2483 -6 2533 64 21 30 22 39 25 334 l3 302 -2561 0 -2561 0 3 -302z"/>
<path d="M1960 660 l0 -150 -87 0 c-66 0 -96 -5 -128 -20 -110 -53 -111 -212
-1 -264 30 -14 115 -16 816 -16 701 0 786 2 816 16 110 52 109 211 -1 264 -32
15 -62 20 -128 20 l-87 0 0 150 0 150 -600 0 -600 0 0 -150z"/>
</g>
</svg>
