<?xml version="1.0" standalone="no"?>
<!DOCTYPE svg PUBLIC "-//W3C//DTD SVG 20010904//EN"
 "http://www.w3.org/TR/2001/REC-SVG-20010904/DTD/svg10.dtd">
<svg version="1.0" xmlns="http://www.w3.org/2000/svg"
 width="512.000000pt" height="512.000000pt" viewBox="0 0 512.000000 512.000000"
 preserveAspectRatio="xMidYMid meet">

<g transform="translate(0.000000,512.000000) scale(0.100000,-0.100000)"
fill="#000000" stroke="none">
<path d="M835 4830 c-142 -16 -293 -97 -377 -203 -49 -62 -101 -171 -117 -245
-15 -73 -16 -2833 0 -2918 6 -32 28 -96 50 -141 63 -132 172 -227 331 -291 38
-15 101 -17 563 -22 l520 -5 0 -170 0 -170 -135 -5 c-75 -3 -144 -10 -155 -17
-31 -18 -73 -65 -84 -96 -16 -40 -14 -123 3 -156 20 -37 79 -89 114 -98 15 -5
475 -8 1022 -8 1109 0 1022 -6 1088 69 54 62 57 170 5 233 -51 63 -81 73 -225
73 l-128 0 0 175 0 175 506 0 505 0 76 25 c149 50 264 150 332 289 22 45 45
108 50 140 15 84 15 2830 0 2912 -25 137 -117 277 -236 357 -83 57 -160 85
-267 98 -93 10 -3348 10 -3441 -1z m3470 -392 c41 -22 71 -56 90 -100 13 -33
15 -167 15 -1138 l0 -1100 -1850 0 -1850 0 0 1105 c0 1078 0 1107 20 1144 23
46 71 89 108 97 15 3 32 7 37 9 6 2 773 3 1705 2 1556 -2 1697 -3 1725 -19z"/>
<path d="M1391 4019 c-109 -21 -212 -102 -263 -207 l-33 -67 0 -470 0 -470 31
-60 c39 -74 116 -148 192 -183 l57 -27 393 -3 c340 -3 401 -1 450 13 141 41
240 148 271 293 7 34 11 193 11 445 0 415 -4 456 -49 546 -46 90 -151 167
-259 190 -63 13 -733 13 -801 0z"/>
<path d="M3062 3869 c-118 -59 -135 -232 -31 -312 60 -45 97 -48 494 -45 322
3 374 5 400 20 90 49 128 154 90 245 -20 48 -41 71 -87 94 -35 18 -64 19 -430
19 -382 0 -394 -1 -436 -21z"/>
<path d="M3106 3039 c-91 -21 -152 -108 -144 -200 6 -62 46 -122 98 -149 37
-19 58 -20 435 -20 369 0 398 1 433 19 46 23 67 46 87 94 45 109 -19 231 -135
256 -62 13 -717 13 -774 0z"/>
</g>
</svg>
