<?xml version="1.0" standalone="no"?>
<!DOCTYPE svg PUBLIC "-//W3C//DTD SVG 20010904//EN"
 "http://www.w3.org/TR/2001/REC-SVG-20010904/DTD/svg10.dtd">
<svg version="1.0" xmlns="http://www.w3.org/2000/svg"
 width="512.000000pt" height="512.000000pt" viewBox="0 0 512.000000 512.000000"
 preserveAspectRatio="xMidYMid meet">

<g transform="translate(0.000000,512.000000) scale(0.100000,-0.100000)"
fill="#000000" stroke="none">
<path d="M383 5105 c-182 -49 -320 -189 -368 -372 -23 -86 -23 -3200 0 -3286
48 -185 187 -324 372 -372 48 -13 182 -15 865 -15 l808 0 0 -230 0 -230 -62 0
c-284 0 -496 -177 -531 -440 -10 -74 -9 -82 10 -108 11 -15 31 -33 44 -39 19
-10 255 -13 1046 -13 l1023 0 31 28 c39 35 48 93 25 180 -61 238 -260 392
-508 392 l-78 0 0 230 0 230 808 0 c683 0 817 2 865 15 185 48 324 187 372
372 23 86 23 3200 0 3286 -48 185 -187 324 -372 372 -84 22 -4269 21 -4350 0z
m4358 -211 c60 -28 125 -93 153 -153 l21 -46 3 -1317 2 -1318 -230 0 -230 0
-2 1171 -3 1171 -33 29 -33 30 -435 -3 -436 -3 -29 -33 -29 -32 0 -1165 0
-1165 -250 0 -250 0 0 38 c-1 226 -36 720 -68 940 l-17 119 58 64 c60 65 87
108 114 183 37 104 34 248 -9 349 -12 28 -104 194 -203 367 -159 277 -186 317
-217 333 -42 21 -78 15 -109 -17 -42 -44 -389 -660 -409 -727 -51 -171 -4
-360 122 -495 l29 -31 -20 -144 c-35 -249 -71 -722 -71 -941 l0 -38 -250 0
-250 0 0 760 0 760 -212 424 c-219 438 -230 456 -288 456 -58 0 -69 -18 -288
-456 l-212 -424 0 -760 0 -760 -230 0 -230 0 0 1298 c0 1412 -2 1349 55 1433
36 51 88 90 150 111 47 16 180 17 2170 15 l2120 -2 46 -21z m-481 -733 l0 -99
-71 -4 c-65 -3 -74 -6 -100 -36 -18 -20 -29 -43 -29 -62 0 -19 11 -42 29 -62
26 -30 35 -33 100 -36 l71 -4 0 -148 0 -148 -71 -4 c-65 -3 -74 -6 -100 -36
-18 -20 -29 -43 -29 -62 0 -19 11 -42 29 -62 26 -30 35 -33 100 -36 l71 -4 0
-148 0 -148 -71 -4 c-65 -3 -74 -6 -100 -36 -18 -20 -29 -43 -29 -62 0 -19 11
-42 29 -62 26 -30 35 -33 100 -36 l71 -4 0 -198 0 -198 -71 -4 c-65 -3 -74 -6
-100 -36 -18 -20 -29 -43 -29 -62 0 -19 11 -42 29 -62 26 -30 35 -33 100 -36
l71 -4 0 -99 0 -99 -300 0 -300 0 0 1100 0 1100 300 0 300 0 0 -99z m-1536
-250 c93 -160 138 -250 146 -285 26 -126 -44 -267 -163 -327 -59 -31 -159 -37
-228 -14 -71 24 -157 109 -182 180 -23 68 -22 158 4 215 40 89 272 481 280
473 5 -5 69 -113 143 -242z m-1441 -16 l117 -235 -240 0 -240 0 117 235 c65
129 120 235 123 235 3 0 58 -106 123 -235z m-223 -1135 l0 -700 -100 0 -100 0
0 700 0 700 100 0 100 0 0 -700z m400 0 l0 -700 -100 0 -100 0 0 700 0 700
100 0 100 0 0 -700z m1237 223 c12 -89 39 -360 46 -465 l4 -58 -187 0 -186 0
3 33 c1 17 7 93 13 167 10 124 34 330 46 390 l5 25 122 -2 122 -2 12 -88z m63
-823 l0 -100 -200 0 -200 0 0 100 0 100 200 0 200 0 0 -100z m2158 -487 c-3
-167 -5 -193 -24 -234 -28 -60 -93 -125 -153 -153 l-46 -21 -2135 0 -2135 0
-46 21 c-60 28 -125 93 -153 153 -19 41 -21 67 -24 234 l-4 187 2362 0 2362 0
-4 -187z m-2058 -843 l0 -230 -300 0 -300 0 0 230 0 230 300 0 300 0 0 -230z
m387 -445 c66 -20 127 -65 163 -122 17 -26 30 -51 30 -55 0 -4 -396 -8 -880
-8 -484 0 -880 4 -880 8 0 19 63 102 98 128 83 64 72 63 778 64 539 0 648 -2
691 -15z"/>
<path d="M2124 1650 c-32 -13 -64 -59 -64 -91 0 -18 11 -41 29 -61 l29 -33
336 -3 335 -3 33 30 c27 24 33 36 33 71 0 35 -6 47 -33 71 l-32 29 -323 -1
c-177 0 -332 -4 -343 -9z"/>
<path d="M3124 1650 c-32 -13 -64 -59 -64 -91 0 -40 46 -88 91 -95 31 -5 42
-1 70 24 28 25 34 37 34 72 0 35 -6 47 -33 71 -33 29 -60 35 -98 19z"/>
</g>
</svg>
