<?xml version="1.0" standalone="no"?>
<!DOCTYPE svg PUBLIC "-//W3C//DTD SVG 20010904//EN"
 "http://www.w3.org/TR/2001/REC-SVG-20010904/DTD/svg10.dtd">
<svg version="1.0" xmlns="http://www.w3.org/2000/svg"
 width="512.000000pt" height="512.000000pt" viewBox="0 0 512.000000 512.000000"
 preserveAspectRatio="xMidYMid meet">

<g transform="translate(0.000000,512.000000) scale(0.100000,-0.100000)"
fill="#000000" stroke="none">
<path d="M1153 5110 c-555 -60 -996 -457 -1126 -1015 -21 -89 -21 -109 -25
-1475 -3 -1439 -2 -1489 38 -1650 54 -211 170 -419 324 -575 191 -194 419
-317 691 -372 84 -17 178 -18 1505 -18 1327 0 1421 1 1505 18 522 105 906 480
1028 1002 21 89 21 109 25 1460 4 1453 2 1504 -43 1673 -112 415 -425 752
-827 888 -210 72 -112 67 -1643 70 -759 1 -1413 -2 -1452 -6z m1732 -999 c264
-56 487 -167 712 -354 261 -217 439 -524 520 -897 28 -131 25 -508 -6 -640
-31 -134 -57 -210 -111 -327 -225 -480 -650 -803 -1182 -898 -137 -24 -470
-17 -608 13 -381 84 -752 336 -965 657 -305 460 -358 1072 -134 1550 158 337
437 623 750 769 153 71 275 107 509 150 14 3 113 3 220 1 150 -2 218 -8 295
-24z"/>
<path d="M2425 3990 c-427 -46 -790 -254 -1034 -595 l-35 -48 253 7 c273 7
281 6 281 -44 0 -43 -27 -58 -118 -66 -46 -4 -85 -10 -87 -14 -3 -4 112 -353
254 -776 209 -621 260 -764 269 -748 15 29 302 895 302 913 0 9 -48 148 -107
310 -83 229 -111 295 -127 301 -12 5 -51 12 -89 15 -38 4 -74 13 -82 22 -18
18 -20 67 -2 81 8 6 156 9 427 7 382 -3 415 -5 427 -21 38 -52 -7 -93 -105
-95 -26 -1 -58 -4 -72 -8 l-26 -6 258 -764 c142 -420 259 -765 261 -767 8 -8
239 791 249 864 23 156 -9 282 -121 477 -115 199 -126 226 -126 326 0 78 3 90
30 133 38 61 94 101 164 119 l54 14 -79 60 c-316 239 -660 341 -1019 303z"/>
<path d="M3823 3097 c-3 -217 5 -190 -346 -1202 -161 -467 -190 -555 -184
-561 10 -11 166 108 260 196 172 163 299 365 371 589 53 167 70 275 70 446 0
171 -19 291 -64 428 -28 81 -94 237 -102 237 -2 0 -4 -60 -5 -133z"/>
<path d="M1212 3053 c-75 -208 -104 -426 -83 -620 45 -439 270 -821 624 -1062
65 -44 169 -102 174 -97 4 4 -660 1825 -676 1853 -5 10 -18 -12 -39 -74z"/>
<path d="M2364 1802 l-212 -617 47 -12 c161 -44 431 -56 597 -28 91 16 234 54
234 63 0 3 -409 1126 -436 1196 -3 9 -9 16 -13 16 -3 0 -101 -278 -217 -618z"/>
</g>
</svg>
