<?xml version="1.0" standalone="no"?>
<!DOCTYPE svg PUBLIC "-//W3C//DTD SVG 20010904//EN"
 "http://www.w3.org/TR/2001/REC-SVG-20010904/DTD/svg10.dtd">
<svg version="1.0" xmlns="http://www.w3.org/2000/svg"
 width="512.000000pt" height="512.000000pt" viewBox="0 0 512.000000 512.000000"
 preserveAspectRatio="xMidYMid meet">

<g transform="translate(0.000000,512.000000) scale(0.100000,-0.100000)"
fill="#000000" stroke="none">
<path d="M376 4254 c-14 -14 -16 -154 -16 -1390 l0 -1374 2200 0 2200 0 -2
1380 c-3 1215 -5 1382 -18 1390 -9 6 -834 10 -2182 10 -1956 0 -2168 -2 -2182
-16z m2505 -277 c40 -27 59 -60 59 -106 0 -41 -493 -1892 -517 -1938 -60 -119
-243 -76 -243 57 0 37 491 1884 515 1938 31 68 122 92 186 49z m-786 -297 c43
-27 61 -71 57 -140 -2 -18 -81 -103 -292 -315 l-290 -290 261 -260 c144 -143
274 -278 290 -299 23 -31 29 -50 29 -89 0 -42 -5 -54 -33 -82 -39 -39 -72 -50
-125 -40 -32 6 -82 51 -379 348 -240 239 -346 352 -354 375 -26 78 -24 80 334
441 183 183 346 342 362 352 39 25 99 24 140 -1z m1063 6 c15 -8 178 -167 364
-353 355 -357 358 -361 343 -435 -6 -26 -81 -107 -344 -371 -185 -186 -349
-345 -365 -354 -70 -36 -168 10 -185 88 -16 74 -6 87 295 389 l284 285 -285
285 c-207 206 -288 294 -294 318 -10 34 0 87 21 113 39 48 112 63 166 35z"/>
<path d="M0 1162 c0 -91 23 -153 81 -216 36 -40 65 -61 105 -75 55 -21 60 -21
2374 -21 2314 0 2319 0 2374 21 40 14 69 35 105 75 58 63 81 125 81 216 l0 58
-2560 0 -2560 0 0 -58z"/>
</g>
</svg>
